<svg xmlns="http://www.w3.org/2000/svg" version="1.1" xmlns:xlink="http://www.w3.org/1999/xlink" viewBox="0 0 200 200"><rect width="200" height="200" fill="url('#gradient')"></rect><defs><linearGradient id="gradient" gradientTransform="rotate(231 0.5 0.5)"><stop offset="0%" stop-color="#66d81f"></stop><stop offset="100%" stop-color="#d9e241"></stop></linearGradient></defs><g><g fill="#0080ff" transform="matrix(4.810020876826722,0,0,4.810020876826722,10.147172888597026,134.20350493867113)" stroke="#000000" stroke-width="1.5"><path d="M9.98 0L9.15-2.66L4.45-2.66L3.63 0L-0.03 0L5.19-14.22L8.41-14.22L13.66 0L9.98 0ZM6.80-10.23L5.27-5.30L8.33-5.30L6.80-10.23ZM24.69-14.22L24.69-11.57L20.42-11.57L20.42 0L16.99 0L16.99-11.57L12.80-11.57L12.80-14.22L24.69-14.22ZM33.96-4.81L37.36-4.81Q37.29-3.33 36.56-2.19Q35.83-1.05 34.51-0.43Q33.18 0.20 31.48 0.20L31.48 0.20Q28.68 0.20 27.07-1.63Q25.46-3.46 25.46-6.79L25.46-6.79L25.46-7.49Q25.46-9.58 26.19-11.15Q26.91-12.71 28.28-13.57Q29.65-14.42 31.45-14.42L31.45-14.42Q34.03-14.42 35.61-13.06Q37.18-11.70 37.39-9.31L37.39-9.31L33.97-9.31Q33.94-10.61 33.32-11.17Q32.71-11.74 31.45-11.74L31.45-11.74Q30.17-11.74 29.57-10.78Q28.97-9.82 28.95-7.72L28.95-7.72L28.95-6.72Q28.95-4.44 29.52-3.47Q30.09-2.49 31.48-2.49L31.48-2.49Q32.67-2.49 33.29-3.05Q33.92-3.60 33.96-4.81L33.96-4.81Z"></path></g></g></svg>